{
  "title": "Younger.S01E04.WEBRip.x264.mp4",
  "uid": 11816722,
  "size": 158991312,
  "categoryP": "video",
  "categoryS": "tv_shows",
  "magnet": "?xt=urn:btih:b4959c8297953cc4adbbdd254f29707f901aa5d9&amp;dn=Younger.S01E04.WEBRip.x264.mp4&amp;tr=udp%3A%2F%2Ftracker.openbittorrent.com%3A80&amp;tr=udp%3A%2F%2Fopen.demonii.com%3A1337&amp;tr=udp%3A%2F%2Ftracker.coppersurfer.tk%3A6969&amp;tr=udp%3A%2F%2Fexodus.desync.com%3A6969",
  "seeders": 43,
  "leechers": 2,
  "uploader": "Monspants",
  "files": 1,
  "time": 1429118451,
  "description": "\nVideo\nID : 1\nFormat : AVC\nFormat/Info : Advanced Video Codec\nFormat profile : &lt;a class=&quot;__cf_email__&quot; href=&quot;/cdn-cgi/l/email-protection&quot; data-cfemail=&quot;0f426e66614f433c213f&quot;&gt;[email&amp;#160;protected]&lt;/a&gt;&lt;script cf-hash='f9e31' type=&quot;text/javascript&quot;&gt;\n/* &lt;![CDATA[ */!function(){try{var t=&quot;currentScript&quot;in document?document.currentScript:function(){for(var t=document.getElementsByTagName(&quot;script&quot;),e=t.length;e--;)if(t[e].getAttribute(&quot;cf-hash&quot;))return t[e]}();if(t&amp;&amp;t.previousSibling){var e,r,n,i,c=t.previousSibling,a=c.getAttribute(&quot;data-cfemail&quot;);if(a){for(e=&quot;&quot;,r=parseInt(a.substr(0,2),16),n=2;a.length-n;n+=2)i=parseInt(a.substr(n,2),16)^r,e+=String.fromCharCode(i);e=document.createTextNode(e),c.parentNode.replaceChild(e,c)}}}catch(u){}}();/* ]]&gt; */&lt;/script&gt;\nFormat settings, CABAC : No\nFormat settings, ReFrames : 2 frames\nFormat settings, GOP : M=2, N=24\nCodec ID : avc1\nCodec ID/Info : Advanced Video Coding\nDuration : 21mn 15s\nBit rate : 870 Kbps\nWidth : 720 pixels\nHeight : 404 pixels\nDisplay aspect ratio : 16:9\nFrame rate mode : Constant\nFrame rate : 30.000 fps\nColor space : YUV\nChroma subsampling : 4:2:0\nBit depth : 8 bits\nScan type : Progressive\nBits/(Pixel*Frame) : 0.100\nStream size : 132 MiB (87%)\nLanguage : English\nEncoded date : UTC 2015-04-15 13:20:12\nTagged date : UTC 2015-04-15 13:34:03\nColor primaries : BT.601-6 525, BT.1358 525, BT.1700 NTSC, SMPTE 170M\nTransfer characteristics : BT.709-5, BT.1361\nMatrix coefficients : BT.601-6 525, BT.1358 525, BT.1700 NTSC, SMPTE 170M\n\nAudio\nID : 2\nFormat : AAC\nFormat/Info : Advanced Audio Codec\nFormat profile : LC\nCodec ID : 40\nDuration : 21mn 15s\nBit rate mode : Constant\nBit rate : 122 Kbps\nNominal bit rate : 128 Kbps\nChannel(s) : 2 channels\nChannel positions : Front: L R\nSampling rate : 44.1 KHz\nCompression mode : Lossy\nStream size : 18.5 MiB (12%)\nLanguage : English\nEncoded date : UTC 2015-04-15 13:20:12\nTagged date : UTC 2015-04-15 13:34:03",
  "parsed": {
    "xt": "urn:btih:b4959c8297953cc4adbbdd254f29707f901aa5d9",
    "dn": "Younger.S01E04.WEBRip.x264.mp4",
    "tr": [
      "udp://exodus.desync.com:6969",
      "udp://open.demonii.com:1337",
      "udp://tracker.coppersurfer.tk:6969",
      "udp://tracker.openbittorrent.com:80"
    ],
    "infoHash": "b4959c8297953cc4adbbdd254f29707f901aa5d9",
    "infoHashBuffer": {
      "type": "Buffer",
      "data": [
        180,
        149,
        156,
        130,
        151,
        149,
        60,
        196,
        173,
        187,
        221,
        37,
        79,
        41,
        112,
        127,
        144,
        26,
        165,
        217
      ]
    },
    "name": "Younger.S01E04.WEBRip.x264.mp4",
    "announce": [
      "udp://exodus.desync.com:6969",
      "udp://open.demonii.com:1337",
      "udp://tracker.coppersurfer.tk:6969",
      "udp://tracker.openbittorrent.com:80"
    ],
    "urlList": []
  },
  "previous": 9,
  "peers": 10,
  "last_updated": "2016-12-27T10:49:28.025Z"
}